<svg id="visual" viewBox="0 0 960 540" width="960" height="540" xmlns="http://www.w3.org/2000/svg" xmlns:xlink="http://www.w3.org/1999/xlink" version="1.1"><rect x="0" y="0" width="960" height="540" fill="#000000"></rect><path d="M0 392L22.8 400.2C45.7 408.3 91.3 424.7 137 427.7C182.7 430.7 228.3 420.3 274 409.2C319.7 398 365.3 386 411.2 391.7C457 397.3 503 420.7 548.8 423.2C594.7 425.7 640.3 407.3 686 390.8C731.7 374.3 777.3 359.7 823 363.3C868.7 367 914.3 389 937.2 400L960 411L960 541L937.2 541C914.3 541 868.7 541 823 541C777.3 541 731.7 541 686 541C640.3 541 594.7 541 548.8 541C503 541 457 541 411.2 541C365.3 541 319.7 541 274 541C228.3 541 182.7 541 137 541C91.3 541 45.7 541 22.8 541L0 541Z" fill="#121314" stroke-linecap="round" stroke-linejoin="miter"></path></svg>